<svg viewBox="0 0 980 760" xmlns="http://www.w3.org/2000/svg" font-family="'Segoe UI','Noto Sans Thai',sans-serif" role="img" aria-label="แผนผังไฟล์ พร้อมลำดับ 1 turn">
<title>file-map + ลำดับการทำงาน 1 turn</title>
<desc>แผนผังความเชื่อมโยงไฟล์ ไฮไลต์เส้นทางการเรียกจริง 1 turn ด้วยเลข 1 ถึง 9</desc>
<defs>
<marker id="ar" viewBox="0 0 10 10" refX="8" refY="5" markerWidth="7" markerHeight="7" orient="auto"><path d="M0 0 L10 5 L0 10 z" fill="#B0B7C4"/></marker>
<marker id="ard" viewBox="0 0 10 10" refX="8" refY="5" markerWidth="7" markerHeight="7" orient="auto"><path d="M0 0 L10 5 L0 10 z" fill="#C9BE95"/></marker>
<marker id="fb" viewBox="0 0 10 10" refX="8" refY="5" markerWidth="7.5" markerHeight="7.5" orient="auto"><path d="M0 0 L10 5 L0 10 z" fill="#2563EB"/></marker>
</defs>
<rect x="2" y="2" width="976" height="756" rx="14" fill="#FFFFFF" stroke="#E5E3DC" stroke-width="1.5"/>
<text x="26" y="34" font-size="19" font-weight="600" fill="#22262F">แผนผังไฟล์ + ลำดับการทำงาน 1 turn</text>
<text x="26" y="55" font-size="11.5" fill="#7A8296">🔵 เส้นน้ำเงิน + เลข ①–⑨ = เส้นทางที่เดินจริงตอน respond() (recommend) · เทา = โครงสร้างที่ไม่ได้เดินรอบนี้</text>

<!-- GRAY structural arrows (not this turn) -->
<g stroke="#B0B7C4" stroke-width="1.4" fill="none">
<path d="M335 122 L410 150" marker-end="url(#ar)"/>
<path d="M320 428 L383 428" marker-end="url(#ar)"/>
<path d="M245 471 L378 518" marker-end="url(#ar)"/>
<path d="M390 660 L390 604" marker-end="url(#ar)"/>
</g>
<g stroke="#C9BE95" stroke-width="1.2" fill="none" stroke-dasharray="4 3">
<path d="M607 424 L668 405" marker-end="url(#ard)"/>
<path d="M705 338 L772 384" marker-end="url(#ard)"/>
</g>

<!-- BLUE turn-path arrows -->
<g stroke="#2563EB" stroke-width="2" fill="none">
<path d="M625 122 L556 150" marker-end="url(#fb)"/>
<path d="M405 212 L165 250" marker-end="url(#fb)"/>
<path d="M450 212 L372 250" marker-end="url(#fb)"/>
<path d="M520 212 L588 250" marker-end="url(#fb)"/>
<path d="M560 212 L818 250" marker-end="url(#fb)"/>
<path d="M135 338 L455 384" marker-end="url(#fb)"/>
<path d="M365 338 L478 384" marker-end="url(#fb)"/>
<path d="M825 338 L545 384" marker-end="url(#fb)"/>
<path d="M560 338 L300 384" marker-end="url(#fb)"/>
<path d="M610 338 L515 384" marker-end="url(#fb)"/>
<path d="M492 214 L481 382" marker-end="url(#fb)"/>
<path d="M185 471 L165 518" marker-end="url(#fb)"/>
<path d="M540 471 L638 518" marker-end="url(#fb)"/>
</g>

<!-- ENTRY -->
<rect x="235" y="80" width="200" height="44" rx="8" fill="#F1F3F7" stroke="#9AA3B2"/>
<text x="335" y="100" text-anchor="middle" font-size="13.5" font-weight="600" fill="#3A4152">cli.py</text>
<text x="335" y="116" text-anchor="middle" font-size="10" fill="#7A8296">โหมด terminal</text>
<rect x="525" y="80" width="200" height="44" rx="8" fill="#EAF1FF" stroke="#2563EB" stroke-width="1.4"/>
<text x="625" y="100" text-anchor="middle" font-size="13.5" font-weight="600" fill="#1E4FC0">app.py</text>
<text x="625" y="116" text-anchor="middle" font-size="10" fill="#4A6FBF">เว็บ Streamlit (การ์ด + รูป)</text>

<!-- ORCHESTRATOR -->
<rect x="300" y="152" width="360" height="60" rx="9" fill="#EEEBFF" stroke="#6C5CE7" stroke-width="1.6"/>
<text x="480" y="176" text-anchor="middle" font-size="14.5" font-weight="700" fill="#3A2E9E">agent.py — Orchestrator (ProductRecAgent)</text>
<text x="480" y="196" text-anchor="middle" font-size="10.5" fill="#5B4FC0">respond(): เรียกลูกทีมตามลำดับ · ⑤ Generator + prompts อยู่ในไฟล์นี้</text>

<!-- STAGES -->
<rect x="30" y="250" width="210" height="88" rx="8" fill="#E4F5F0" stroke="#12A594" stroke-width="1.4"/>
<text x="135" y="277" text-anchor="middle" font-size="13.5" font-weight="700" fill="#0C7A6E">memory.py</text>
<text x="135" y="298" text-anchor="middle" font-size="10.5" fill="#2C2C2A">จดโน้ต profile</text>
<text x="135" y="325" text-anchor="middle" font-size="9.5" font-style="italic" fill="#12A594">EXTRACT_SYSTEM</text>
<rect x="260" y="250" width="210" height="88" rx="8" fill="#ECEAFB" stroke="#6C5CE7" stroke-width="1.4"/>
<text x="365" y="277" text-anchor="middle" font-size="13.5" font-weight="700" fill="#3A2E9E">planner.py</text>
<text x="365" y="298" text-anchor="middle" font-size="10.5" fill="#2C2C2A">ask / recommend / chat</text>
<text x="365" y="325" text-anchor="middle" font-size="9.5" font-style="italic" fill="#6C5CE7">PLAN_SYSTEM</text>
<rect x="490" y="250" width="210" height="88" rx="8" fill="#FBEFD9" stroke="#E8930C" stroke-width="1.4"/>
<text x="595" y="277" text-anchor="middle" font-size="13.5" font-weight="700" fill="#9A6206">retriever.py</text>
<text x="595" y="298" text-anchor="middle" font-size="10.5" fill="#2C2C2A">ค้น + กรองงบ</text>
<text x="595" y="325" text-anchor="middle" font-size="9.5" font-style="italic" fill="#E8930C">ใช้ bge-m3</text>
<rect x="720" y="250" width="210" height="88" rx="8" fill="#FCE9E5" stroke="#FF6B57" stroke-width="1.4"/>
<text x="825" y="277" text-anchor="middle" font-size="13.5" font-weight="700" fill="#C13B29">reranker.py</text>
<text x="825" y="298" text-anchor="middle" font-size="10.5" fill="#2C2C2A">ให้คะแนน 0–10</text>
<text x="825" y="325" text-anchor="middle" font-size="9.5" font-style="italic" fill="#FF6B57">RERANK_SYSTEM</text>

<!-- FOUNDATION -->
<rect x="100" y="385" width="220" height="86" rx="8" fill="#FBF4E7" stroke="#BA8B2E" stroke-width="1.4"/>
<text x="210" y="414" text-anchor="middle" font-size="13.5" font-weight="700" fill="#8A6420">catalog.py</text>
<text x="210" y="436" text-anchor="middle" font-size="10.5" fill="#2C2C2A">get_collection → ChromaDB</text>
<text x="210" y="457" text-anchor="middle" font-size="9.5" font-style="italic" fill="#BA8B2E">load_products / build_index</text>
<rect x="385" y="385" width="220" height="86" rx="9" fill="#DFF3EF" stroke="#12A594" stroke-width="2.4"/>
<text x="495" y="414" text-anchor="middle" font-size="14" font-weight="800" fill="#0C7A6E">★ llm.py</text>
<text x="495" y="435" text-anchor="middle" font-size="10.5" fill="#2C2C2A">chat · chat_json · embed</text>
<text x="495" y="456" text-anchor="middle" font-size="9.5" font-style="italic" fill="#12A594">ประตูเดียวสู่ AI</text>
<rect x="670" y="385" width="200" height="86" rx="8" fill="#F1F3F7" stroke="#9AA3B2" stroke-width="1.4"/>
<text x="770" y="414" text-anchor="middle" font-size="13.5" font-weight="700" fill="#3A4152">config.py</text>
<text x="770" y="436" text-anchor="middle" font-size="10.5" fill="#2C2C2A">ค่ากลาง: โมเดล · k · path</text>
<text x="770" y="457" text-anchor="middle" font-size="9.5" fill="#7A8296">(ทุกโมดูลอ่านค่า)</text>

<!-- EXTERNAL -->
<rect x="55" y="520" width="210" height="84" rx="8" fill="#F7F6F2" stroke="#9AA3B2" stroke-dasharray="5 3" stroke-width="1.3"/>
<text x="160" y="548" text-anchor="middle" font-size="12.5" font-weight="700" fill="#5F5E5A">ChromaDB · .chroma/</text>
<text x="160" y="570" text-anchor="middle" font-size="10.5" fill="#5F5E5A">Vector DB (1,800 สินค้า)</text>
<rect x="285" y="520" width="210" height="84" rx="8" fill="#F7F6F2" stroke="#9AA3B2" stroke-dasharray="5 3" stroke-width="1.3"/>
<text x="390" y="548" text-anchor="middle" font-size="12.5" font-weight="700" fill="#5F5E5A">data/products.json</text>
<text x="390" y="570" text-anchor="middle" font-size="10.5" fill="#5F5E5A">แคตตาล็อก + รูป</text>
<rect x="520" y="520" width="300" height="84" rx="8" fill="#F7F6F2" stroke="#9AA3B2" stroke-dasharray="5 3" stroke-width="1.3"/>
<text x="670" y="548" text-anchor="middle" font-size="12.5" font-weight="700" fill="#5F5E5A">Ollama (ภายนอก)</text>
<text x="670" y="570" text-anchor="middle" font-size="10.5" fill="#5F5E5A">Typhoon2 8B (chat) · bge-m3 (embed)</text>
<text x="670" y="590" text-anchor="middle" font-size="9.5" font-style="italic" fill="#2563EB">🔵 เรียก AI หลายครั้ง/turn (③⑤⑦⑧⑨)</text>
<rect x="285" y="660" width="210" height="42" rx="8" fill="#FFFFFF" stroke="#BA8B2E" stroke-dasharray="5 3" stroke-width="1.3"/>
<text x="390" y="678" text-anchor="middle" font-size="11.5" font-weight="600" fill="#8A6420">data/build_products.py</text>
<text x="390" y="693" text-anchor="middle" font-size="9.5" fill="#7A8296">stream Amazon → สร้าง (ครั้งเดียว)</text>

<!-- NUMBER BADGES on turn path -->
<g font-family="'Segoe UI',sans-serif">
<circle cx="592" cy="138" r="11" fill="#2563EB"/><text x="592" y="142" text-anchor="middle" font-size="12" font-weight="700" fill="#FFF">1</text>
<circle cx="330" cy="226" r="11" fill="#2563EB"/><text x="330" y="230" text-anchor="middle" font-size="12" font-weight="700" fill="#FFF">2</text>
<circle cx="205" cy="352" r="11" fill="#2563EB"/><text x="205" y="356" text-anchor="middle" font-size="12" font-weight="700" fill="#FFF">3</text>
<circle cx="424" cy="227" r="11" fill="#2563EB"/><text x="424" y="231" text-anchor="middle" font-size="12" font-weight="700" fill="#FFF">4</text>
<circle cx="402" cy="356" r="11" fill="#2563EB"/><text x="402" y="360" text-anchor="middle" font-size="12" font-weight="700" fill="#FFF">5</text>
<circle cx="546" cy="227" r="11" fill="#2563EB"/><text x="546" y="231" text-anchor="middle" font-size="12" font-weight="700" fill="#FFF">6</text>
<circle cx="512" cy="352" r="11" fill="#2563EB"/><text x="512" y="356" text-anchor="middle" font-size="12" font-weight="700" fill="#FFF">7</text>
<circle cx="642" cy="226" r="11" fill="#2563EB"/><text x="642" y="230" text-anchor="middle" font-size="12" font-weight="700" fill="#FFF">8</text>
<circle cx="486" cy="300" r="11" fill="#2563EB"/><text x="486" y="304" text-anchor="middle" font-size="12" font-weight="700" fill="#FFF">9</text>
</g>

<!-- legend -->
<rect x="520" y="612" width="410" height="126" rx="9" fill="#F7F9FE" stroke="#C7D6F2"/>
<text x="536" y="632" font-size="11.5" font-weight="700" fill="#1E4FC0">ลำดับ 1 turn (recommend)</text>
<text x="536" y="651" font-size="10.5" fill="#2C2C2A">① app→agent   ② agent→memory   ③ memory→llm→AI</text>
<text x="536" y="669" font-size="10.5" fill="#2C2C2A">④ agent→planner   ⑤ planner→llm→AI   ⑥ agent→retriever</text>
<text x="536" y="687" font-size="10.5" fill="#2C2C2A">⑦ retriever→catalog→ChromaDB (+bge-m3)   ⑧ agent→reranker→llm</text>
<text x="536" y="705" font-size="10.5" fill="#2C2C2A">⑨ agent→llm เขียนคำตอบ (Generator)</text>
<text x="536" y="726" font-size="10" font-style="italic" fill="#7A8296">↩ ทุกขั้นเด้งกลับ agent ก่อนไปขั้นถัดไป (ไม่วาดเส้นย้อน)</text>

<text x="944" y="295" font-size="10.5" fill="#9AA3B2" transform="rotate(90 944 295)">5 ขั้น pipeline</text>
<text x="944" y="430" font-size="10.5" fill="#9AA3B2" transform="rotate(90 944 430)">ฐาน</text>
<text x="944" y="560" font-size="10.5" fill="#9AA3B2" transform="rotate(90 944 560)">ภายนอก</text>
</svg>
